<?xml version="1.0" encoding="UTF-8"?> <svg xmlns="http://www.w3.org/2000/svg" width="192" height="47" viewBox="0 0 192 47" fill="none"><path d="M50.2076 16.6187H69.533V20.2163H61.9239V40.4969H57.7531V20.2163H50.1758L50.2076 16.6187ZM68.7053 23.209H72.2711V26.552H72.3348C72.4621 26.0744 72.685 25.6287 73.0034 25.183C73.3217 24.7372 73.7038 24.3233 74.1813 23.9731C74.6271 23.5911 75.1365 23.3045 75.7095 23.0817C76.2508 22.8588 76.8239 22.7315 77.3969 22.7315C77.8427 22.7315 78.161 22.7633 78.3202 22.7633C78.4794 22.7951 78.6705 22.827 78.8296 22.827V26.4883C78.5749 26.4246 78.2884 26.3928 78.0019 26.361C77.7153 26.3291 77.4606 26.2973 77.1741 26.2973C76.5373 26.2973 75.9324 26.4246 75.3593 26.6793C74.7863 26.934 74.3087 27.3161 73.863 27.7936C73.4491 28.303 73.0989 28.908 72.8442 29.6402C72.5895 30.3725 72.4621 31.2321 72.4621 32.1872V40.4013H68.6416L68.7053 23.209ZM96.3403 40.4969H92.5835V38.0772H92.5198C92.0422 38.9687 91.3418 39.6372 90.4185 40.1785C89.4952 40.7197 88.5401 40.9744 87.585 40.9744C85.3245 40.9744 83.669 40.4332 82.6502 39.287C81.6313 38.1727 81.1219 36.4535 81.1219 34.193V23.209H84.9425V33.811C84.9425 35.3392 85.229 36.4216 85.8339 37.0266C86.407 37.6633 87.2348 37.9817 88.2854 37.9817C89.0813 37.9817 89.7499 37.8543 90.2912 37.5996C90.8324 37.3449 91.2781 37.0266 91.5965 36.6127C91.9467 36.1988 92.1696 35.6894 92.3288 35.1163C92.488 34.5432 92.5517 33.9065 92.5517 33.2379V23.209H96.3722V40.4969H96.3403ZM102.835 34.9571C102.963 36.0714 103.376 36.8355 104.109 37.3131C104.841 37.7588 105.732 37.9817 106.751 37.9817C107.101 37.9817 107.515 37.9499 107.961 37.8862C108.407 37.8225 108.853 37.727 109.235 37.5678C109.648 37.4086 109.967 37.1857 110.222 36.8674C110.476 36.549 110.604 36.1669 110.572 35.6894C110.54 35.2118 110.381 34.7979 110.031 34.4795C109.68 34.1612 109.266 33.9383 108.757 33.7154C108.248 33.5244 107.643 33.3652 106.974 33.2379C106.306 33.1105 105.637 32.9513 104.936 32.7922C104.236 32.633 103.536 32.4419 102.867 32.2191C102.198 31.9962 101.625 31.7097 101.084 31.2958C100.575 30.9137 100.129 30.4362 99.8425 29.8313C99.5241 29.2263 99.3649 28.5259 99.3649 27.6345C99.3649 26.6793 99.5878 25.9152 100.065 25.2785C100.511 24.6417 101.116 24.1323 101.816 23.7503C102.517 23.3682 103.313 23.0817 104.172 22.9225C105.032 22.7633 105.86 22.6996 106.624 22.6996C107.515 22.6996 108.375 22.7951 109.171 22.9862C109.967 23.1772 110.731 23.4637 111.368 23.9095C112.036 24.3234 112.578 24.8964 112.991 25.565C113.437 26.2336 113.692 27.0614 113.819 28.0165H109.839C109.648 27.0932 109.235 26.4883 108.598 26.1699C107.929 25.8516 107.197 25.6924 106.337 25.6924C106.083 25.6924 105.732 25.7242 105.382 25.756C105 25.8197 104.682 25.8834 104.332 26.0107C104.013 26.1381 103.727 26.3291 103.504 26.552C103.281 26.7748 103.154 27.0932 103.154 27.4753C103.154 27.9528 103.313 28.303 103.631 28.5896C103.95 28.8761 104.363 29.099 104.905 29.3219C105.414 29.5129 106.019 29.6721 106.688 29.7994C107.356 29.9268 108.057 30.086 108.757 30.2451C109.457 30.4043 110.126 30.5954 110.795 30.8182C111.463 31.0411 112.068 31.3276 112.578 31.7415C113.087 32.1236 113.533 32.6011 113.851 33.1742C114.169 33.7473 114.329 34.4795 114.329 35.3073C114.329 36.3261 114.106 37.1857 113.628 37.918C113.151 38.6184 112.546 39.2234 111.813 39.6691C111.081 40.1148 110.222 40.4332 109.33 40.6561C108.407 40.8471 107.515 40.9744 106.624 40.9744C105.541 40.9744 104.523 40.8471 103.599 40.5924C102.676 40.3377 101.848 39.9556 101.18 39.4781C100.511 38.9687 99.9698 38.3637 99.5878 37.5996C99.2057 36.8674 98.9828 35.9759 98.951 34.9253H102.803V34.9571H102.835ZM115.411 23.209H118.308V17.9877H122.129V23.1772H125.567V26.0107H122.129V35.2437C122.129 35.6575 122.161 35.9759 122.192 36.2943C122.224 36.5808 122.32 36.8355 122.415 37.0266C122.543 37.2176 122.734 37.3768 122.957 37.4723C123.211 37.5678 123.53 37.6315 123.975 37.6315C124.23 37.6315 124.517 37.6315 124.771 37.5996C125.026 37.5678 125.313 37.536 125.567 37.4723V40.4332C125.153 40.4969 124.739 40.5287 124.326 40.5605C123.912 40.6242 123.53 40.6242 123.084 40.6242C122.065 40.6242 121.269 40.5287 120.664 40.3377C120.059 40.1467 119.582 39.8601 119.232 39.5099C118.881 39.1278 118.658 38.6821 118.531 38.1409C118.404 37.5996 118.34 36.931 118.308 36.2306V26.0426H115.411V23.1454V23.209ZM128.242 23.209H131.839V25.565H131.903C132.444 24.5462 133.176 23.8458 134.132 23.4001C135.087 22.9543 136.106 22.7315 137.252 22.7315C138.621 22.7315 139.799 22.9543 140.817 23.4637C141.836 23.9413 142.664 24.5781 143.333 25.4377C144.001 26.2654 144.511 27.2524 144.829 28.3667C145.147 29.481 145.338 30.6909 145.338 31.9325C145.338 33.1105 145.179 34.2248 144.893 35.3073C144.574 36.3898 144.129 37.3768 143.524 38.2046C142.919 39.0323 142.155 39.7009 141.2 40.2103C140.244 40.7197 139.162 40.9744 137.888 40.9744C137.347 40.9744 136.774 40.9108 136.233 40.8152C135.692 40.7197 135.15 40.5605 134.641 40.3377C134.132 40.1148 133.654 39.8283 133.24 39.4781C132.794 39.1278 132.444 38.714 132.158 38.2682H132.094V46.8962H128.273V23.209H128.242ZM141.582 31.8689C141.582 31.1048 141.486 30.3407 141.263 29.6084C141.072 28.8761 140.754 28.2394 140.34 27.6663C139.926 27.0932 139.417 26.6475 138.844 26.2973C138.239 25.9471 137.538 25.7879 136.774 25.7879C135.182 25.7879 133.972 26.3291 133.145 27.4434C132.349 28.5578 131.935 30.0541 131.935 31.9007C131.935 32.7922 132.03 33.5881 132.253 34.3204C132.476 35.0526 132.763 35.6894 133.208 36.2306C133.622 36.7719 134.132 37.1857 134.736 37.5041C135.341 37.8225 136.01 37.9817 136.806 37.9817C137.697 37.9817 138.398 37.7907 139.003 37.4405C139.608 37.0902 140.085 36.6127 140.499 36.0714C140.881 35.4984 141.168 34.8616 141.327 34.1293C141.486 33.3652 141.582 32.633 141.582 31.8689ZM148.299 16.6187H152.12V20.2163H148.299V16.6187ZM148.299 23.209H152.12V40.4969H148.299V23.209ZM155.526 16.6187H159.347V40.4969H155.526V16.6187ZM171 40.9744C169.631 40.9744 168.389 40.7516 167.306 40.274C166.224 39.7964 165.332 39.1915 164.568 38.3956C163.836 37.5996 163.263 36.6127 162.881 35.4984C162.499 34.384 162.276 33.1424 162.276 31.837C162.276 30.5317 162.467 29.3219 162.881 28.2075C163.263 27.0932 163.836 26.1381 164.568 25.3103C165.301 24.5144 166.224 23.8776 167.306 23.4319C168.389 22.9862 169.631 22.7315 171 22.7315C172.369 22.7315 173.61 22.9543 174.693 23.4319C175.775 23.8776 176.667 24.5144 177.431 25.3103C178.163 26.1063 178.736 27.0932 179.118 28.2075C179.5 29.3219 179.723 30.5317 179.723 31.837C179.723 33.1742 179.532 34.384 179.118 35.4984C178.704 36.6127 178.163 37.5678 177.431 38.3956C176.698 39.1915 175.775 39.8283 174.693 40.274C173.61 40.7197 172.4 40.9744 171 40.9744ZM171 37.9499C171.827 37.9499 172.591 37.7588 173.196 37.4086C173.833 37.0584 174.311 36.5808 174.725 36.0078C175.138 35.4347 175.425 34.7661 175.616 34.0657C175.807 33.3334 175.903 32.6011 175.903 31.837C175.903 31.1048 175.807 30.3725 175.616 29.6402C175.425 28.908 175.138 28.2712 174.725 27.6981C174.311 27.1251 173.801 26.6793 173.196 26.3291C172.56 25.9789 171.827 25.7879 171 25.7879C170.172 25.7879 169.408 25.9789 168.803 26.3291C168.166 26.6793 167.688 27.1569 167.275 27.6981C166.861 28.2712 166.574 28.908 166.383 29.6402C166.192 30.3725 166.097 31.1048 166.097 31.837C166.097 32.6011 166.192 33.3334 166.383 34.0657C166.574 34.7979 166.861 35.4347 167.275 36.0078C167.688 36.5808 168.198 37.0584 168.803 37.4086C169.439 37.7907 170.172 37.9499 171 37.9499ZM180.869 23.209H183.766V17.9877H187.587V23.1772H191.025V26.0107H187.587V35.2437C187.587 35.6575 187.619 35.9759 187.651 36.2943C187.682 36.5808 187.778 36.8355 187.873 37.0266C188.001 37.2176 188.192 37.3768 188.415 37.4723C188.669 37.5678 188.988 37.6315 189.434 37.6315C189.688 37.6315 189.975 37.6315 190.229 37.5996C190.484 37.5678 190.771 37.536 191.025 37.4723V40.4332C190.612 40.4969 190.198 40.5287 189.784 40.5605C189.37 40.6242 188.988 40.6242 188.542 40.6242C187.523 40.6242 186.727 40.5287 186.122 40.3377C185.517 40.1467 185.04 39.8601 184.69 39.5099C184.339 39.1278 184.117 38.6821 183.989 38.1409C183.862 37.5996 183.798 36.931 183.766 36.2306V26.0426H180.869V23.1454V23.209Z" fill="black"></path><path d="M45.7507 16.6192H28.2718L22.8912 0L17.4789 16.6192L0 16.5874L14.1359 26.8709L8.72351 43.4902L22.8594 33.2066L36.9953 43.4902L31.6148 26.8709L45.7507 16.6192Z" fill="#00B67A"></path><path d="M32.8249 30.6274L31.6151 26.8706L22.8916 33.2063L32.8249 30.6274Z" fill="#005128"></path></svg> 