<?xml version="1.0" encoding="UTF-8"?> <svg xmlns="http://www.w3.org/2000/svg" width="148" height="31" viewBox="0 0 148 31" fill="none"><path d="M91.8092 20.9849C91.8092 15.3023 96.393 11.0941 101.999 11.0941C107.552 11.0941 112.135 15.3023 112.135 20.9849C112.135 26.6829 107.552 30.8982 101.999 30.8982C96.393 30.8911 91.8092 26.6829 91.8092 20.9849ZM57.1984 4.33644V5.48832C57.1984 5.91835 57.1063 6.04949 57.0224 6.22552L46.1711 24.7017C46.1486 24.7324 46.1628 24.7785 46.2101 24.7785H57.7667V30.2768H36.9561V29.2017C36.9561 28.7256 37.0175 28.6263 37.2786 28.1502L48.007 9.92689C48.0295 9.88909 48.0141 9.8501 47.968 9.8501H37.2857V4.33644H57.1984ZM124.061 30.2697H118.502L112.458 11.5702H118.432L120.161 17.2304C120.736 19.1041 121.704 22.6212 121.704 22.6212C121.719 22.6673 121.78 22.659 121.788 22.6212C121.788 22.6212 122.786 19.0344 123.355 17.2304L125.168 11.5702H129.575L131.357 17.2304C131.956 19.1656 132.893 22.6212 132.893 22.6212C132.907 22.6673 132.961 22.6673 132.985 22.6212C132.985 22.6212 133.953 19.1266 134.528 17.2304L136.256 11.5702H141.808L135.803 30.2697H130.343L128.854 25.57C128.284 23.727 127.279 20.1485 127.279 20.1485C127.263 20.1024 127.202 20.1024 127.195 20.1485C127.195 20.1485 126.188 23.6573 125.582 25.5393L124.061 30.2697ZM67.6658 30.2697H61.6216V11.5702H67.6658V30.2697ZM72.2496 1.68652H78.2938V30.2697H72.2496V1.68652ZM82.7701 1.68652H88.8143V30.2697H82.7701V1.68652ZM106.338 20.9849C106.338 18.2051 104.349 16.3077 101.999 16.3077C99.5959 16.3077 97.6064 18.2051 97.6064 20.9849C97.6064 23.7884 99.5959 25.661 101.999 25.661C104.349 25.6622 106.338 23.7884 106.338 20.9849ZM144.818 7.08559C143.574 7.08559 142.56 8.09924 142.56 9.34327C142.56 10.5873 143.574 11.601 144.818 11.601C146.062 11.601 147.076 10.5873 147.076 9.34327C147.076 8.09924 146.062 7.08559 144.818 7.08559ZM144.818 11.1638C143.813 11.1638 142.998 10.3498 142.998 9.34327C142.998 8.33789 143.812 7.52389 144.818 7.52389C145.823 7.52389 146.639 8.33789 146.639 9.34327C146.639 10.3498 145.825 11.1638 144.818 11.1638ZM144.949 7.99173C145.471 7.99173 145.847 8.3757 145.847 8.90615C145.847 9.31256 145.625 9.62799 145.294 9.75795L145.809 10.6027H145.318L144.841 9.81938H144.419V10.6027H143.989V7.99173H144.949ZM144.926 8.37569H144.419V9.43542H144.926C145.21 9.43542 145.417 9.21214 145.417 8.90615C145.417 8.59898 145.21 8.37569 144.926 8.37569ZM64.6402 2.20162C66.521 2.20162 68.0804 3.7221 68.0804 5.59583C68.0804 7.46955 66.521 8.99003 64.6402 8.99003C62.7582 8.99003 61.1999 7.46955 61.1999 5.59583C61.1987 3.7221 62.7582 2.20162 64.6402 2.20162Z" fill="#006AFF"></path><path d="M7.4471 27.1144C7.33206 27.1761 7.23836 27.1607 7.14585 27.0682L4.57097 23.9999C4.50218 23.9145 4.49388 23.8683 4.58639 23.7378C6.57655 20.8237 10.6387 16.2824 13.229 14.3634C13.2753 14.3325 13.2598 14.2934 13.2053 14.3171C10.5071 15.196 2.83699 18.4955 0 20.099V30.5207H27.6073V20.4845C23.8452 21.1238 12.5743 24.4779 7.4471 27.1144ZM18.6717 8.36562C18.8105 8.33478 18.8722 8.38103 18.9564 8.47355C19.4343 9.00489 20.9619 10.8705 21.3771 11.3793C21.4542 11.4718 21.4008 11.5726 21.3391 11.626C18.2554 14.0313 14.8242 17.4388 12.9123 19.8749C12.8744 19.9294 12.9052 19.9294 12.9361 19.9211C16.2664 18.4872 24.0907 16.197 27.6144 15.5577V11.0947L13.8232 0.185547L0.00830223 11.0864V15.9657C4.28632 13.4229 14.185 9.48286 18.6717 8.36562Z" fill="#006AFF"></path></svg> 