<?xml version="1.0" encoding="UTF-8"?> <svg xmlns="http://www.w3.org/2000/svg" width="69" height="82" viewBox="0 0 69 82" fill="none"><path d="M45.3908 19.8152V53.1177C45.3908 58.8555 40.7443 63.502 35.0065 63.502C29.2686 63.502 24.6221 58.8555 24.6221 53.1177V19.8152H7.77246V54.0272C7.77246 69.0745 19.9757 81.2777 35.023 81.2777C50.0703 81.2777 62.2735 69.0745 62.2735 54.0272V19.8152H45.3908Z" fill="#F8A5A3"></path><path d="M18.1396 0.412842H14.2041V10.1027H18.1396V0.412842Z" fill="#4C88F8"></path><path d="M3.76518 5.16036L0.982422 7.94312L7.83409 14.7948L10.6168 12.012L3.76518 5.16036Z" fill="#4C88F8"></path><path d="M28.5821 5.16176L21.7305 12.0134L24.5132 14.7962L31.3649 7.94452L28.5821 5.16176Z" fill="#4C88F8"></path><path d="M55.7743 0.412842H51.8389V10.1027H55.7743V0.412842Z" fill="#4C88F8"></path><path d="M41.4009 5.16109L38.6182 7.94385L45.4698 14.7955L48.2526 12.0128L41.4009 5.16109Z" fill="#4C88F8"></path><path d="M66.2169 5.16127L59.3652 12.0129L62.148 14.7957L68.9997 7.94403L66.2169 5.16127Z" fill="#4C88F8"></path><path d="M62.2403 19.8152H45.3906V31.9357H62.2403V19.8152Z" fill="#F2F6FE"></path><path d="M24.6055 19.8152H7.75586V31.9357H24.6055V19.8152Z" fill="#F2F6FE"></path></svg> 