<?xml version="1.0" encoding="UTF-8"?> <svg xmlns="http://www.w3.org/2000/svg" width="222" height="36" viewBox="0 0 222 36" fill="none"><path d="M75.1529 10.33V6.88232H60.2598V28.0524H63.9784V19.0374H72.7984V15.6085H63.9784V10.33H75.1529Z" fill="white"></path><path d="M89.9697 20.278C89.9697 18.2297 89.282 16.5002 87.9216 15.1384C86.565 13.7728 84.8421 13.0825 82.8053 13.0825C80.4844 13.0825 78.5112 14.0429 76.9564 15.9375C76.0595 17.0292 75.5026 18.4022 75.3905 19.8128C75.1924 22.2589 75.9399 24.3597 77.6067 26.0554C79.0979 27.5711 80.8993 28.3402 82.9585 28.3402C83.7284 28.3402 84.4833 28.2276 85.2046 28.0063C85.9222 27.7849 86.5164 27.5411 86.9724 27.2785C87.4246 27.0158 87.8581 26.712 88.258 26.3743C88.6616 26.0329 88.9232 25.7928 89.054 25.639C89.1774 25.4927 89.2708 25.3802 89.3306 25.3014L89.4577 25.1326L87.2078 22.8741L86.5949 23.6282C86.3221 23.9583 85.8362 24.3072 85.1523 24.6636C84.4759 25.02 83.7396 25.2001 82.9585 25.2001C81.8859 25.2001 80.9479 24.8512 80.1668 24.1647C79.4642 23.5456 79.0157 22.8178 78.8288 22H89.7865L89.9697 20.278ZM78.9858 18.995C79.2399 18.1847 79.6772 17.5094 80.2826 16.9804C80.9553 16.3914 81.8037 16.095 82.8016 16.095C83.8181 16.095 84.6702 16.3914 85.3429 16.9804C85.9446 17.5094 86.3445 18.1847 86.5388 18.995H78.9858Z" fill="white"></path><path d="M208.474 20.278C208.474 18.2297 207.786 16.5002 206.426 15.1384C205.069 13.7728 203.346 13.0825 201.309 13.0825C198.988 13.0825 197.015 14.0429 195.46 15.9375C194.563 17.0292 194.007 18.4022 193.894 19.8128C193.696 22.2589 194.444 24.3597 196.111 26.0554C197.602 27.5711 199.403 28.3402 201.462 28.3402C202.232 28.3402 202.987 28.2276 203.709 28.0063C204.426 27.7849 205.02 27.5411 205.476 27.2785C205.929 27.0158 206.362 26.712 206.762 26.3743C207.166 26.0329 207.427 25.7928 207.558 25.639C207.681 25.4927 207.775 25.3802 207.835 25.3014L207.962 25.1326L205.712 22.8741L205.099 23.6282C204.826 23.9583 204.34 24.3072 203.656 24.6636C202.98 25.02 202.244 25.2001 201.462 25.2001C200.39 25.2001 199.452 24.8512 198.671 24.1647C197.968 23.5456 197.52 22.8178 197.333 22H208.291L208.474 20.278ZM197.49 18.995C197.744 18.1847 198.181 17.5094 198.787 16.9804C199.459 16.3914 200.308 16.095 201.305 16.095C202.322 16.095 203.174 16.3914 203.847 16.9804C204.449 17.5094 204.848 18.1847 205.043 18.995H197.49Z" fill="white"></path><path d="M96.2761 6.88135H92.8564V28.0515H96.2761V6.88135Z" fill="white"></path><path d="M102.128 7.18457C101.556 7.18457 101.074 7.37965 100.693 7.76231C100.312 8.14497 100.117 8.62893 100.117 9.20292C100.117 9.77691 100.312 10.2646 100.693 10.6435C101.074 11.0262 101.556 11.2213 102.128 11.2213C102.7 11.2213 103.182 11.0262 103.567 10.6435C103.948 10.2609 104.142 9.77691 104.142 9.20292C104.142 8.62893 103.948 8.14497 103.567 7.76231C103.185 7.37965 102.7 7.18457 102.128 7.18457Z" fill="white"></path><path d="M103.84 13.3867H100.405V28.0516H103.84V13.3867Z" fill="white"></path><path d="M115.766 20.4209L120.796 13.3867H116.805L113.695 17.7798L110.575 13.3867H106.598L111.628 20.4209L106.153 28.0516H110.145L113.695 23.0658L117.249 28.0516H121.226L115.766 20.4209Z" fill="white"></path><path d="M143.766 6.88135V15.6075H134.098V6.88135H130.379V28.0515H134.098V19.0364H143.766V28.0515H147.484V6.88135H143.766Z" fill="white"></path><path d="M185.257 13.0825C184.633 13.0825 184.024 13.1726 183.441 13.3451C182.861 13.5177 182.387 13.7165 182.028 13.9304C181.673 14.1442 181.333 14.3993 181.019 14.6882C180.72 14.9621 180.526 15.1534 180.425 15.2697C180.316 15.1121 180.163 14.9245 179.954 14.7032C179.722 14.4556 179.442 14.208 179.128 13.9641C178.799 13.7128 178.362 13.4989 177.823 13.3339C176.616 12.9587 175.211 12.9887 173.978 13.6002C173.294 13.9416 172.853 14.2117 172.625 14.4293C172.602 14.4518 172.58 14.4744 172.558 14.4969V13.3901H169.123V28.055H172.558V20.1392C172.558 18.9162 172.849 17.9483 173.428 17.2618C174 16.579 174.695 16.2451 175.547 16.2451C176.385 16.2451 177.027 16.5115 177.513 17.0629C178.003 17.6144 178.25 18.451 178.25 19.5465V28.055H181.684V20.1392C181.684 18.9162 181.976 17.9483 182.551 17.2618C183.127 16.579 183.818 16.2451 184.67 16.2451C185.504 16.2451 186.146 16.5115 186.636 17.0629C187.126 17.6144 187.372 18.451 187.372 19.5465V28.055H190.803V19.5427C190.803 17.4606 190.306 15.8474 189.327 14.752C188.34 13.6415 186.969 13.0825 185.257 13.0825Z" fill="white"></path><path d="M220.993 21.5164C220.616 20.9236 220.13 20.4734 219.551 20.1883C219.005 19.9182 218.411 19.6668 217.783 19.4492C217.159 19.2317 216.568 19.0478 216.034 18.9053C215.533 18.7702 215.111 18.5714 214.786 18.3163C214.49 18.0837 214.348 17.8098 214.348 17.4722C214.348 17.1533 214.498 16.8794 214.808 16.6318C215.133 16.3767 215.585 16.2454 216.157 16.2454C216.587 16.2454 217.024 16.3467 217.454 16.5455C218 16.8006 218.22 16.9544 218.31 17.037C218.456 17.172 218.568 17.2808 218.642 17.3559L218.814 17.5284L221.057 15.2775L220.709 14.8761C220.586 14.7523 220.395 14.591 220.134 14.3884C219.872 14.1858 219.562 13.9832 219.218 13.7919C218.867 13.593 218.407 13.428 217.858 13.2929C217.308 13.1579 216.736 13.0903 216.153 13.0903C214.673 13.0903 213.418 13.533 212.42 14.4071C211.418 15.2888 210.91 16.3204 210.91 17.4759C210.91 18.3088 211.101 19.0328 211.478 19.6331C211.856 20.2296 212.341 20.6798 212.921 20.9611C213.47 21.2275 214.064 21.4751 214.685 21.6927C215.301 21.9103 215.888 22.0941 216.43 22.2442C216.931 22.383 217.353 22.5818 217.682 22.8369C217.973 23.0658 218.119 23.3396 218.119 23.6735C218.119 24.1387 217.955 24.4989 217.622 24.7727C217.275 25.0578 216.733 25.2004 216.008 25.2004C215.398 25.2004 214.797 25.0466 214.217 24.7427C213.485 24.36 213.193 24.1312 213.078 24.0074C212.902 23.8161 212.764 23.6548 212.674 23.5272L212.506 23.2909L210.237 25.5681L210.585 26.0107C210.734 26.2021 210.959 26.4197 211.28 26.6785C211.59 26.9299 211.953 27.1812 212.364 27.4251C212.782 27.6764 213.321 27.894 213.967 28.0704C214.614 28.2467 215.298 28.3367 216.008 28.3367C217.633 28.3367 218.975 27.879 219.995 26.9786C221.027 26.067 221.55 24.9528 221.55 23.666C221.565 22.8369 221.371 22.1129 220.993 21.5164Z" fill="white"></path><path d="M163.827 15.3597C162.328 13.8478 160.531 13.0825 158.49 13.0825C156.45 13.0825 154.656 13.8478 153.153 15.3597C151.651 16.8716 150.889 18.6724 150.889 20.717C150.889 22.7616 151.651 24.5586 153.153 26.0667C154.652 27.5748 156.45 28.3364 158.49 28.3364C160.531 28.3364 162.328 27.5711 163.827 26.0667C165.33 24.5623 166.088 22.7616 166.088 20.717C166.088 18.6724 165.326 16.8716 163.827 15.3597ZM161.417 23.902C160.583 24.7724 159.63 25.1963 158.49 25.1963C157.354 25.1963 156.394 24.7724 155.557 23.902C154.731 23.0392 154.312 21.97 154.312 20.7207C154.312 19.4714 154.731 18.3985 155.557 17.5394C156.394 16.669 157.354 16.2451 158.49 16.2451C159.63 16.2451 160.587 16.669 161.417 17.5394C162.239 18.4022 162.657 19.4714 162.657 20.7207C162.657 21.97 162.239 23.0392 161.417 23.902Z" fill="white"></path><path d="M18.9368 4.54715C19.2806 4.27328 19.475 3.86061 19.4637 3.41792C19.4525 2.98649 19.2507 2.58883 18.9031 2.33747C16.1637 0.341636 10.5578 -2.17942 3.78956 3.38416C-0.896991 7.22952 -1.29688 15.4867 2.92625 21.0541C3.79704 22.202 5.14994 23.5826 6.94383 25.1583C7.39605 25.5559 8.02017 25.646 8.56955 25.3946C9.12641 25.1433 9.47024 24.6068 9.47024 23.9953V14.4063C9.47024 12.9507 10.1131 11.6039 11.2305 10.711L18.9368 4.54715Z" fill="#FFCD59"></path><path d="M38.6434 3.38489C35.5713 0.860086 32.7422 0.000976562 30.3092 0.000976562C27.3792 0.000976562 25.0285 1.2465 23.5298 2.33821C23.1822 2.59331 22.9767 2.98723 22.9692 3.41866C22.958 3.86134 23.1523 4.27026 23.4962 4.54788L31.2025 10.7117C32.3199 11.6046 32.9627 12.9514 32.9627 14.407V23.9998C32.9627 24.6075 33.3065 25.144 33.8634 25.3991C34.4128 25.6505 35.0369 25.5604 35.4891 25.1628C37.283 23.5871 38.6359 22.2065 39.5067 21.0585C43.7298 15.4875 43.3299 7.23025 38.6434 3.38489Z" fill="#4C88F8"></path><path d="M22.2477 7.19593C21.9449 6.95208 21.5787 6.83203 21.2162 6.83203C20.8536 6.83203 20.4874 6.95208 20.1847 7.19593L12.9867 12.9546C12.5606 13.296 12.3027 13.84 12.3027 14.4065V23.3727C12.3027 24.3744 13.0726 25.1885 14.0144 25.1885H28.4142C29.3597 25.1885 30.1258 24.3744 30.1258 23.3727V14.4065C30.1258 13.84 29.8717 13.296 29.4419 12.9546L22.2477 7.19593Z" fill="#F0695A"></path><path d="M31.1729 28.4786C31.0944 28.2723 30.8964 28.0547 30.5712 28.0547H21.2168H11.8624C11.5372 28.0547 11.3391 28.2723 11.2607 28.4786C11.1822 28.6812 11.1859 28.9776 11.4214 29.2027C14.0337 31.7012 18.4176 34.77 19.9424 35.5691C20.3497 35.7829 20.787 35.9105 21.2168 35.9217C21.6466 35.9067 22.0838 35.7792 22.4912 35.5691C24.016 34.77 28.4036 31.7012 31.0122 29.2027C31.2477 28.9776 31.2477 28.6812 31.1729 28.4786Z" fill="#39C2AA"></path></svg> 